<?xml version="1.0" encoding="utf-8"?>
<!-- Generator: Adobe Illustrator 16.0.0, SVG Export Plug-In . SVG Version: 6.00 Build 0)  -->
<!DOCTYPE svg PUBLIC "-//W3C//DTD SVG 1.1//EN" "http://www.w3.org/Graphics/SVG/1.1/DTD/svg11.dtd">
<svg version="1.1" id="图层_1" xmlns="http://www.w3.org/2000/svg" xmlns:xlink="http://www.w3.org/1999/xlink" x="0px" y="0px"
	 width="30px" height="30px" viewBox="0 0 30 30" enable-background="new 0 0 30 30" xml:space="preserve">
<g>
	<g>
		<path fill-rule="evenodd" clip-rule="evenodd" fill="#8990A1" d="M0,25.303c0,1.658,1.343,3,3,3h24c1.657,0,3-1.342,3-3v-15H0
			V25.303z M11.5,13.303h7c0.828,0,1.5,0.672,1.5,1.5c0,0.198-0.041,0.387-0.11,0.56l0.028,0.017l-5.199,9.182l-0.023-0.014
			c-0.249,0.449-0.712,0.756-1.25,0.756c-0.798,0-1.445-0.668-1.445-1.492c0-0.351,0.122-0.668,0.317-0.923l3.729-6.585H11.5
			c-0.828,0-1.5-0.672-1.5-1.5S10.672,13.303,11.5,13.303z M27,4.303h-3c0-1.104-0.896-2-2-2s-2,0.896-2,2H10c0-1.104-0.896-2-2-2
			s-2,0.896-2,2H3c-1.657,0-3,0.844-3,2.5v1.5h30v-1.5C30,5.146,28.657,4.303,27,4.303z M9,6.803c0,0.275-0.224,0.5-0.5,0.5h-1
			c-0.276,0-0.5-0.225-0.5-0.5v-2c0-0.275,0.224-0.5,0.5-0.5h1c0.276,0,0.5,0.225,0.5,0.5V6.803z M22.99,6.809
			c0,0.273-0.222,0.494-0.495,0.494h-1C21.222,7.303,21,7.082,21,6.809V4.797c0-0.271,0.222-0.494,0.495-0.494h1
			c0.273,0,0.495,0.223,0.495,0.494V6.809z"/>
	</g>
</g>
</svg>
