<?xml version="1.0" encoding="utf-8"?>
<!-- Generator: Adobe Illustrator 16.0.0, SVG Export Plug-In . SVG Version: 6.00 Build 0)  -->
<!DOCTYPE svg PUBLIC "-//W3C//DTD SVG 1.1//EN" "http://www.w3.org/Graphics/SVG/1.1/DTD/svg11.dtd">
<svg version="1.1" id="图层_1" xmlns="http://www.w3.org/2000/svg" xmlns:xlink="http://www.w3.org/1999/xlink" x="0px" y="0px"
	 width="50px" height="50px" viewBox="-5 -10 50 50" enable-background="new -5 -10 50 50" xml:space="preserve">
<g>
	<g>
		<path fill="white" d="M20-10C6.193-10-5,1.193-5,15c0,13.807,11.193,25,25,25s25-11.193,25-25C45,1.193,33.807-10,20-10z M20,38
			C7.297,38-3,27.703-3,15C-3,2.297,7.297-8,20-8C32.702-8,43,2.297,43,15C43,27.703,32.702,38,20,38z M29.398,7.744l-14.05,12.324
			l-5.954-6.477c-0.76-0.766-1.992-0.766-2.752,0c-0.76,0.765-0.76,2.006,0,2.772l7.328,7.862c0.761,0.768,1.993,0.768,2.753,0.002
			L32.15,10.518c0.761-0.766,0.761-2.007,0-2.773C31.39,6.98,30.157,6.98,29.398,7.744z"/>
	</g>
</g>
</svg>
