<?xml version="1.0" encoding="utf-8"?>
<!-- Generator: Adobe Illustrator 16.0.0, SVG Export Plug-In . SVG Version: 6.00 Build 0)  -->
<!DOCTYPE svg PUBLIC "-//W3C//DTD SVG 1.1//EN" "http://www.w3.org/Graphics/SVG/1.1/DTD/svg11.dtd">
<svg version="1.1" id="图层_1" xmlns="http://www.w3.org/2000/svg" xmlns:xlink="http://www.w3.org/1999/xlink" x="0px" y="0px"
	 width="50px" height="50px" viewBox="0 0 50 50" enable-background="new 0 0 50 50" xml:space="preserve">
<g>
	<g>
		<path fill="#FFFFFF" d="M25,0C11.193,0,0,11.193,0,25c0,13.807,11.193,25,25,25c13.807,0,25-11.193,25-25C50,11.193,38.807,0,25,0
			z M25,48C12.297,48,2,37.703,2,25S12.297,2,25,2s23,10.297,23,23S37.703,48,25,48z M35.236,14.724
			c-0.766-0.768-2.012-0.768-2.779,0l-7.465,7.462l-7.463-7.462c-0.769-0.768-2.014-0.768-2.781,0c-0.768,0.769-0.768,2.015,0,2.781
			l7.464,7.463l-7.464,7.466c-0.768,0.768-0.768,2.012,0,2.779s2.013,0.768,2.781,0l7.465-7.462l7.463,7.462
			c0.768,0.768,2.014,0.768,2.779,0c0.768-0.77,0.768-2.015,0-2.781l-7.463-7.464l7.463-7.465
			C36.004,16.736,36.004,15.491,35.236,14.724z"/>
	</g>
</g>
</svg>
