<?xml version="1.0" encoding="utf-8"?>
<!-- Generator: Adobe Illustrator 16.0.0, SVG Export Plug-In . SVG Version: 6.00 Build 0)  -->
<!DOCTYPE svg PUBLIC "-//W3C//DTD SVG 1.1//EN" "http://www.w3.org/Graphics/SVG/1.1/DTD/svg11.dtd">
<svg version="1.1" id="Capa_1" xmlns="http://www.w3.org/2000/svg" xmlns:xlink="http://www.w3.org/1999/xlink" x="0px" y="0px"
	 width="100px" height="100px" viewBox="0 0 100 100" enable-background="new 0 0 100 100" xml:space="preserve">
<g id="User">
	<g>
		<path fill="#FFFFFF" d="M100,75c0-10.213-12.263-18.981-29.813-22.862C73.182,48.019,75,42.987,75,37.5V25
			C75,11.194,63.807,0,50,0C36.194,0,25,11.194,25,25v12.5c0,5.487,1.819,10.519,4.813,14.638C12.263,56.019,0,64.787,0,75
			c0,2.193,0.625,4.313,1.688,6.338C0.644,83.162,0,85.25,0,87.5C0,94.406,5.594,100,12.5,100h75c6.906,0,12.5-5.594,12.5-12.5
			c0-2.25-0.644-4.338-1.688-6.162C99.375,79.313,100,77.193,100,75z M37.5,25c0-6.906,5.594-12.5,12.5-12.5S62.5,18.094,62.5,25
			v12.5C62.5,44.406,56.906,50,50,50s-12.5-5.594-12.5-12.5V25z M87.5,87.5h-75V75c0-6.906,16.788-12.5,37.5-12.5
			c20.713,0,37.5,5.594,37.5,12.5V87.5z"/>
	</g>
</g>
</svg>
