<?xml version="1.0" encoding="utf-8"?>
<!-- Generator: Adobe Illustrator 16.0.0, SVG Export Plug-In . SVG Version: 6.00 Build 0)  -->
<!DOCTYPE svg PUBLIC "-//W3C//DTD SVG 1.1//EN" "http://www.w3.org/Graphics/SVG/1.1/DTD/svg11.dtd">
<svg version="1.1" id="Layer_1" xmlns="http://www.w3.org/2000/svg" xmlns:xlink="http://www.w3.org/1999/xlink" x="0px" y="0px"
	 width="36px" height="36px" viewBox="0 0 36 36" enable-background="new 0 0 36 36" xml:space="preserve">
<path fill="#666666" d="M21.535,28.115c-0.184,0.16-0.523-0.158-1.25,0.021c0.854-1.885,1.383-3.546,1.639-5.095
	c1.771-2.114,7.654-9.445,7.752-13.658c0.045-1.905-0.414-3.365-1.365-4.338c-0.918-0.94-2.293-1.417-4.086-1.417
	c-0.123,0-0.244,0.002-0.363,0.006c-1.809,0.061-4.245,1.337-5.079,3.632c-1.158-1.629-3.115-2.241-4.662-2.241
	c-0.438,0-0.85,0.047-1.225,0.141c-1.916,0.479-3.18,1.303-3.863,2.518c-0.678,1.204-0.73,2.753-0.158,4.604
	c1.225,3.938,8.629,9.214,11.104,10.89c-0.217,1.07-0.404,2.149-0.728,3.187c-0.467,1.502-1.385,2.372-3.178,2.403
	c-1.615,0.024-3.455-0.105-4.922,1.979c1.758,0.431,3.268,0.972,4.818,1.143c1.865,0.205,3.773,0.238,5.645,0.084
	c1.789-0.146,3.558-0.613,5.314-1.021c0.08-0.02,0.152-1.094-0.074-1.253C25.064,28.423,23.277,26.576,21.535,28.115z M9.828,11.991
	C9.34,10.413,9.365,9.129,9.902,8.174c0.543-0.962,1.6-1.628,3.234-2.037c0.293-0.073,0.633-0.111,0.982-0.111
	c1.586,0,3.689,0.764,4.396,2.918l0.866,2.648l0.106-2.784c0.109-2.849,2.925-4.124,4.406-4.173c0.107-0.004,0.219-0.006,0.33-0.006
	c1.535,0,2.637,0.365,3.371,1.115c0.754,0.773,1.117,1.99,1.08,3.616c-0.076,3.299-4.301,9.027-6.578,11.882
	c0.031-1.457-0.197-2.839-0.699-4.229h0.006l0.8-3.302c0,0-0.802,0.713-1.318,2.064c-0.692-1.494-1.659-3.035-2.904-4.738
	c0.834,2.662,2.377,5.853,2.377,8.585l-0.201,2.463C17.453,20.219,10.891,15.405,9.828,11.991z"/>
</svg>
