<?xml version="1.0" encoding="utf-8"?>
<!-- Generator: Adobe Illustrator 16.0.0, SVG Export Plug-In . SVG Version: 6.00 Build 0)  -->
<!DOCTYPE svg PUBLIC "-//W3C//DTD SVG 1.1//EN" "http://www.w3.org/Graphics/SVG/1.1/DTD/svg11.dtd">
<svg version="1.1" id="图层_1" xmlns="http://www.w3.org/2000/svg" xmlns:xlink="http://www.w3.org/1999/xlink" x="0px" y="0px"
	 width="80px" height="80px" viewBox="0 0 80 80" enable-background="new 0 0 80 80" xml:space="preserve">
<g id="Imagenes">
</g>
<g id="Layer_2">
	<path fill="#99C941" d="M43.677,54.205c-0.575-0.146-1.22-0.407-1.892-0.696c-0.545-0.231-1.366-0.582-1.624-0.594
		c-0.255,0.01-1.085,0.362-1.636,0.594c-0.667,0.283-1.304,0.546-1.876,0.693c0.377,1.333,1.803,2.327,3.516,2.327
		C41.874,56.529,43.299,55.536,43.677,54.205z"/>
	<path fill="#3F94A3" d="M12.061,19.356c0.673,2.9,3.758,6.965,6.502,9.618c0.613-4.327,2.981-8.198,6.489-11.087
		c-0.224-0.561-0.478-1.117-0.792-1.636c-1.082-1.788-3.857-3.995-6.086-5.768c-1.873-1.489-2.954-2.366-3.397-3.07
		c-0.517-0.82-1.002-1.004-1.131-1.004C13.61,6.437,13.474,6.657,13.449,7.2c-0.07,1.563-0.451,3.088-0.82,4.565
		C12.034,14.143,11.421,16.6,12.061,19.356z"/>
	<path fill="#3F94A3" d="M67.852,19.356c0.641-2.756,0.025-5.214-0.564-7.592c-0.369-1.476-0.75-3.002-0.82-4.564
		c-0.023-0.543-0.16-0.764-0.209-0.798c-0.121,0.007-0.604,0.192-1.121,1.011c-0.441,0.704-1.523,1.58-3.396,3.07
		c-2.229,1.773-5.002,3.98-6.086,5.768c-0.24,0.399-0.443,0.82-0.631,1.249c3.621,2.804,6.123,6.616,6.891,10.914
		C64.5,25.773,67.225,22.061,67.852,19.356z"/>
	<path fill="#3F94A3" d="M48.137,46.381c6.535-2.352,11.256-7.546,11.916-13.701c0.047-0.439,0.076-0.883,0.08-1.331
		c0-0.05,0.01-0.098,0.01-0.147c0-0.363-0.037-0.718-0.064-1.076c-0.32-4.13-2.449-7.855-5.762-10.61
		c-0.279-0.233-0.582-0.445-0.877-0.666c-0.287-0.211-0.576-0.418-0.879-0.617C49.18,16.01,44.922,14.67,40.29,14.67
		c-4.886,0-9.358,1.483-12.821,3.929c-0.301,0.212-0.591,0.436-0.876,0.663c-0.3,0.239-0.586,0.488-0.868,0.742
		c-3.125,2.815-5.084,6.527-5.256,10.619c-0.008,0.193-0.035,0.382-0.035,0.578c0,0.215,0.029,0.426,0.039,0.64
		c0.02,0.428,0.047,0.854,0.105,1.275c0.821,5.892,5.376,10.842,11.641,13.176c1.035-2.679,4.204-4.636,7.943-4.636
		C43.943,41.657,47.137,43.657,48.137,46.381z M30.071,41.572c-3.245,0-5.874-2.63-5.874-5.874c0-3.245,2.629-5.874,5.874-5.874
		c3.245,0,5.874,2.629,5.874,5.874C35.945,38.942,33.316,41.572,30.071,41.572z M44.459,35.698c0-3.338,2.705-6.045,6.045-6.045
		c3.338,0,6.045,2.707,6.045,6.045c0,3.338-2.707,6.045-6.045,6.045C47.164,41.743,44.459,39.036,44.459,35.698z"/>
	<path fill="#99C941" d="M46.41,49.021c0.008-0.262,0.014-0.537,0.014-0.836c0-0.068-0.012-0.136-0.016-0.203
		c-0.021-0.342-0.096-0.676-0.221-0.996c-0.733-1.891-3.153-3.286-6.025-3.286c-2.837,0-5.236,1.36-6.001,3.218
		c-0.132,0.318-0.21,0.654-0.239,0.998c-0.007,0.091-0.02,0.18-0.02,0.27c0,0.279,0.003,0.537,0.01,0.782
		c0.053,1.905,0.374,2.81,1.959,3.32c0.241-0.015,0.756-0.208,1.25-0.408c0.214-0.088,0.424-0.175,0.606-0.252
		c0.959-0.405,1.788-0.756,2.433-0.756c0.648,0,1.472,0.353,2.425,0.759c0.187,0.079,0.403,0.17,0.623,0.262
		c0.499,0.203,1.015,0.396,1.231,0.396C46.007,51.793,46.352,50.872,46.41,49.021z M42.701,47.6
		c-0.133,0.438-0.463,0.817-0.91,1.092c-0.447,0.271-1.008,0.442-1.629,0.442c-0.628,0-1.196-0.174-1.646-0.454
		c-0.45-0.279-0.781-0.666-0.904-1.115c-0.035-0.129-0.054-0.263-0.054-0.398c0-1.087,1.167-1.971,2.604-1.971
		c1.439,0,2.605,0.884,2.605,1.971C42.768,47.314,42.742,47.458,42.701,47.6z"/>
	<circle fill="#FFFFFF" cx="32.158" cy="36.198" r="2.086"/>
	<circle fill="#FFFFFF" cx="48.504" cy="36.198" r="2.086"/>
</g>
<g enable-background="new    ">
	<path fill="#FFFFFF" d="M11.425,71.5l-1.823-3.358H8.366V71.5H6.591v-8.875h3.094c1.859,0,3.334,0.647,3.334,2.687
		c0,1.331-0.672,2.159-1.691,2.555l2.075,3.634H11.425z M8.366,66.738h1.151c1.14,0,1.763-0.479,1.763-1.427
		c0-0.96-0.624-1.283-1.763-1.283H8.366V66.738z"/>
	<path fill="#FFFFFF" d="M14.068,68.154c0-2.184,1.523-3.538,3.13-3.538c1.847,0,2.806,1.354,2.806,3.214
		c0,0.324-0.036,0.647-0.084,0.804h-4.138c0.144,1.104,0.864,1.679,1.859,1.679c0.552,0,1.032-0.168,1.511-0.468l0.6,1.079
		c-0.66,0.456-1.511,0.744-2.351,0.744C15.531,71.668,14.068,70.36,14.068,68.154z M18.493,67.471c0-0.912-0.408-1.487-1.271-1.487
		c-0.708,0-1.332,0.503-1.463,1.487H18.493z"/>
	<path fill="#FFFFFF" d="M20.956,69.677c0-1.438,1.163-2.194,3.862-2.482c-0.024-0.659-0.312-1.163-1.14-1.163
		c-0.624,0-1.223,0.275-1.847,0.636l-0.636-1.164c0.792-0.491,1.751-0.887,2.807-0.887c1.703,0,2.578,1.019,2.578,2.962V71.5h-1.439
		l-0.132-0.72h-0.036c-0.587,0.504-1.259,0.888-2.027,0.888C21.747,71.668,20.956,70.816,20.956,69.677z M24.817,69.629v-1.355
		c-1.631,0.216-2.183,0.66-2.183,1.26c0,0.527,0.372,0.756,0.888,0.756C24.026,70.289,24.397,70.049,24.817,69.629z"/>
	<path fill="#FFFFFF" d="M27.964,68.154c0-2.243,1.607-3.538,3.43-3.538c0.827,0,1.463,0.323,1.955,0.743l-0.839,1.14
		c-0.336-0.288-0.647-0.444-1.031-0.444c-1.02,0-1.715,0.828-1.715,2.1c0,1.259,0.696,2.074,1.667,2.074
		c0.48,0,0.936-0.228,1.308-0.539l0.695,1.163c-0.636,0.563-1.451,0.815-2.195,0.815C29.379,71.668,27.964,70.373,27.964,68.154z"/>
	<path fill="#FFFFFF" d="M34.815,69.149v-2.975h-0.947v-1.308l1.031-0.084l0.204-1.799h1.475v1.799h1.655v1.392h-1.655v2.975
		c0,0.768,0.312,1.127,0.912,1.127c0.216,0,0.479-0.071,0.66-0.144l0.288,1.283c-0.36,0.12-0.828,0.252-1.415,0.252
		C35.427,71.668,34.815,70.66,34.815,69.149z"/>
	<path fill="#FFFFFF" d="M38.824,72.327h6.477v1.032h-6.477V72.327z"/>
	<path fill="#FFFFFF" d="M45.963,70.373l1.02-1.224c0.636,0.588,1.476,0.983,2.255,0.983c0.924,0,1.415-0.396,1.415-1.02
		c0-0.659-0.539-0.863-1.331-1.199l-1.188-0.504c-0.899-0.372-1.799-1.092-1.799-2.387c0-1.451,1.271-2.566,3.07-2.566
		c1.031,0,2.063,0.408,2.782,1.14l-0.899,1.115c-0.563-0.468-1.151-0.731-1.883-0.731c-0.779,0-1.283,0.348-1.283,0.936
		c0,0.635,0.636,0.863,1.392,1.163l1.163,0.491c1.079,0.444,1.787,1.128,1.787,2.411c0,1.451-1.212,2.687-3.263,2.687
		C48.014,71.668,46.827,71.2,45.963,70.373z"/>
	<path fill="#FFFFFF" d="M53.559,69.677c0-1.438,1.164-2.194,3.862-2.482c-0.024-0.659-0.312-1.163-1.14-1.163
		c-0.623,0-1.223,0.275-1.847,0.636l-0.636-1.164c0.792-0.491,1.751-0.887,2.807-0.887c1.703,0,2.578,1.019,2.578,2.962V71.5h-1.439
		l-0.132-0.72h-0.035c-0.588,0.504-1.26,0.888-2.027,0.888C54.351,71.668,53.559,70.816,53.559,69.677z M57.421,69.629v-1.355
		c-1.631,0.216-2.183,0.66-2.183,1.26c0,0.527,0.371,0.756,0.888,0.756C56.629,70.289,57.001,70.049,57.421,69.629z"/>
	<path fill="#FFFFFF" d="M60.818,62.745c0-0.576,0.444-0.96,1.056-0.96c0.6,0,1.044,0.384,1.044,0.96
		c0,0.552-0.444,0.959-1.044,0.959C61.263,63.704,60.818,63.297,60.818,62.745z M60.986,64.783h1.751V71.5h-1.751V64.783z"/>
	<path fill="#FFFFFF" d="M64.635,69.617V61.93h1.751v7.771c0,0.396,0.192,0.527,0.36,0.527c0.071,0,0.12,0,0.239-0.023l0.216,1.307
		c-0.203,0.084-0.503,0.156-0.911,0.156C65.066,71.668,64.635,70.864,64.635,69.617z"/>
	<path fill="#FFFFFF" d="M67.778,70.721l0.804-1.104c0.6,0.468,1.176,0.731,1.799,0.731c0.672,0,0.972-0.288,0.972-0.708
		c0-0.503-0.695-0.731-1.403-1.007c-0.852-0.324-1.835-0.84-1.835-1.955c0-1.211,0.983-2.063,2.495-2.063
		c0.983,0,1.727,0.407,2.29,0.827l-0.791,1.067c-0.479-0.336-0.947-0.575-1.451-0.575c-0.6,0-0.888,0.264-0.888,0.647
		c0,0.491,0.659,0.671,1.367,0.936c0.888,0.335,1.871,0.779,1.871,2.026c0,1.176-0.924,2.123-2.675,2.123
		C69.434,71.668,68.438,71.272,67.778,70.721z"/>
</g>
</svg>
